<?xml version="1.0" standalone="no"?>
<!DOCTYPE svg PUBLIC "-//W3C//DTD SVG 20010904//EN"
 "http://www.w3.org/TR/2001/REC-SVG-20010904/DTD/svg10.dtd">
<svg version="1.0" xmlns="http://www.w3.org/2000/svg"
 width="159.000000pt" height="159.000000pt" viewBox="0 0 159.000000 159.000000"
 preserveAspectRatio="xMidYMid meet">
<metadata>
Created by potrace 1.14, written by Peter Selinger 2001-2017
</metadata>
<g transform="translate(0.000000,159.000000) scale(0.100000,-0.100000)"
fill="#000000" stroke="none">
<path d="M0 995 c0 -581 0 -595 19 -595 13 0 21 8 23 23 2 14 11 23 25 25 14
2 23 11 25 25 2 14 11 23 25 25 14 2 23 11 25 25 3 21 8 22 128 24 69 1 135 2
147 3 19 0 22 6 25 48 3 40 6 47 25 50 34 5 34 79 1 84 -15 2 -24 11 -26 25
-2 14 -11 23 -25 25 -14 2 -23 11 -25 26 -2 14 -10 22 -22 22 -10 0 -21 4 -25
10 -3 5 -3 63 1 129 6 112 8 120 28 123 13 2 22 12 24 25 2 14 11 23 25 25 19
3 22 10 25 50 3 39 6 47 25 50 14 2 23 11 25 25 3 19 11 22 50 25 40 3 47 6
50 26 3 21 8 22 98 22 l94 0 1 53 c2 147 3 152 27 155 14 2 22 10 22 23 0 18
-12 19 -420 19 l-420 0 0 -595z"/>
<path d="M1010 1571 c0 -13 8 -21 23 -23 14 -2 23 -11 25 -25 2 -14 11 -23 25
-25 17 -2 22 -10 22 -33 0 -25 -4 -30 -27 -33 -26 -3 -28 -7 -28 -47 0 -38 -3
-44 -22 -47 -15 -2 -24 -11 -26 -25 -4 -24 -12 -26 -102 -27 l-45 -1 0 -70 c0
-64 2 -70 22 -73 14 -2 23 -11 25 -25 2 -14 11 -23 25 -25 19 -3 22 -11 25
-50 3 -40 6 -47 25 -50 14 -2 23 -11 25 -25 2 -14 11 -23 26 -25 19 -3 22 -9
22 -47 0 -40 2 -44 28 -47 23 -3 27 -8 27 -33 0 -23 -5 -31 -22 -33 -18 -3
-22 -11 -25 -45 -2 -23 -1 -63 0 -89 3 -39 7 -47 25 -50 14 -2 23 -11 25 -25
3 -22 8 -23 125 -25 117 -3 122 -4 125 -25 2 -14 11 -23 25 -25 14 -2 23 -11
25 -25 2 -14 11 -23 25 -25 14 -2 23 -11 25 -25 2 -14 11 -23 25 -25 21 -3 22
-7 22 -133 0 -126 -1 -130 -22 -133 -14 -2 -23 -11 -25 -25 -2 -14 -11 -23
-25 -25 -14 -2 -23 -11 -25 -25 -2 -14 -11 -23 -25 -25 -13 -2 -23 -10 -23
-18 0 -11 22 -14 115 -14 l115 0 0 795 0 795 -290 0 c-280 0 -290 -1 -290 -19z"/>
<path d="M757 1084 c-4 -4 -7 -15 -7 -25 0 -14 -10 -19 -47 -21 l-48 -3 -3
-42 -3 -42 53 -3 c46 -3 53 -6 56 -25 2 -14 11 -23 25 -25 16 -2 23 -11 25
-30 2 -20 9 -28 22 -28 12 0 20 -8 22 -22 2 -15 11 -24 26 -26 19 -3 22 -9 22
-48 l0 -44 45 0 45 0 2 65 c1 36 2 77 2 93 1 20 -4 28 -21 30 -14 2 -23 11
-25 25 -2 14 -11 23 -25 25 -19 3 -22 11 -25 50 -3 40 -6 47 -25 50 -14 2 -23
11 -25 25 -2 18 -11 23 -43 25 -23 2 -44 0 -48 -4z"/>
<path d="M560 715 c0 -8 7 -15 15 -15 8 0 15 7 15 15 0 8 -7 15 -15 15 -8 0
-15 -7 -15 -15z"/>
<path d="M678 633 l-68 -4 0 -39 c0 -32 4 -39 23 -42 21 -3 22 -8 25 -100 2
-76 6 -98 17 -98 7 0 15 10 17 23 2 16 11 23 31 25 25 3 27 7 27 47 0 38 3 44
23 47 20 3 22 8 22 73 0 80 9 75 -117 68z"/>
<path d="M508 533 c-3 -41 -6 -48 -25 -51 -13 -2 -23 -10 -23 -17 0 -7 10 -15
23 -17 14 -2 23 -11 25 -25 2 -14 11 -23 25 -25 14 -2 23 -11 25 -25 2 -13 10
-23 18 -23 11 0 14 15 14 64 0 59 -2 65 -22 68 -20 3 -23 10 -26 51 -2 32 -8
47 -17 47 -9 0 -15 -15 -17 -47z"/>
<path d="M958 533 c-3 -41 -6 -48 -25 -51 -14 -2 -23 -11 -25 -25 -2 -16 -11
-23 -31 -25 -28 -3 -28 -4 -25 -70 3 -61 5 -67 26 -70 16 -3 22 -10 22 -28 0
-23 -3 -24 -64 -24 -93 0 -124 -8 -128 -34 -4 -31 -62 -30 -66 1 -3 23 -23 31
-59 25 -18 -3 -22 -12 -25 -51 -3 -39 -6 -46 -25 -49 -14 -2 -23 -11 -25 -25
-2 -14 -11 -23 -25 -25 -14 -2 -23 -11 -25 -25 -2 -14 -11 -23 -25 -25 -13 -2
-23 -10 -23 -18 0 -12 52 -14 340 -14 288 0 340 2 340 14 0 8 -10 16 -22 18
-15 2 -24 11 -26 25 -2 14 -11 23 -25 25 -14 2 -23 11 -25 25 -2 14 -11 23
-25 25 -21 3 -22 7 -22 133 0 126 1 130 22 133 14 2 23 11 25 25 2 14 11 23
26 25 18 3 22 10 22 42 0 32 -4 39 -22 42 -15 2 -24 11 -26 26 -6 43 -31 25
-34 -25z"/>
<path d="M208 408 c-2 -15 -11 -24 -25 -26 -14 -2 -23 -11 -25 -25 -2 -14 -11
-23 -25 -25 -21 -3 -23 -9 -23 -67 0 -58 2 -64 23 -67 14 -2 23 -11 25 -25 2
-14 11 -23 25 -25 14 -2 23 -11 25 -25 3 -21 9 -23 67 -23 58 0 64 2 67 22 2
15 11 24 25 26 14 2 23 11 25 25 2 14 11 23 26 25 12 2 22 10 22 18 0 10 -13
14 -50 14 -38 0 -50 -4 -50 -15 0 -11 -11 -15 -39 -15 -33 0 -40 4 -43 23 -2
14 -11 23 -25 25 -19 3 -23 10 -23 40 0 30 5 39 27 50 15 6 33 12 40 12 9 0
13 14 13 40 0 40 0 40 -39 40 -33 0 -40 -4 -43 -22z"/>
<path d="M1160 416 c0 -8 10 -16 23 -18 17 -2 23 -11 25 -35 2 -19 9 -33 16
-33 8 0 16 -9 19 -21 3 -11 15 -23 26 -26 12 -3 21 -11 21 -18 0 -7 -9 -15
-21 -18 -11 -3 -23 -15 -26 -26 -7 -27 -29 -27 -36 0 -3 11 -14 23 -24 25 -17
5 -43 46 -43 70 0 13 -35 22 -62 16 -15 -3 -18 -15 -18 -67 0 -58 2 -64 23
-67 14 -2 23 -11 25 -25 2 -14 11 -23 25 -25 14 -2 23 -11 25 -25 3 -21 9 -23
67 -23 58 0 64 2 67 22 2 15 11 24 25 26 14 2 23 11 25 25 2 14 11 23 26 25
20 3 22 9 22 67 0 58 -2 64 -22 67 -15 2 -24 11 -26 25 -2 14 -11 23 -25 25
-14 2 -23 11 -25 26 -3 20 -9 22 -68 22 -49 0 -64 -3 -64 -14z"/>
<path d="M360 340 l0 -40 40 0 c44 0 58 26 18 32 -15 2 -24 11 -26 26 -6 40
-32 26 -32 -18z"/>
<path d="M0 65 l0 -65 70 0 c54 0 70 3 70 14 0 8 -10 16 -22 18 -15 2 -24 11
-26 25 -2 14 -11 23 -25 25 -14 2 -23 11 -25 26 -2 14 -10 22 -23 22 -17 0
-19 -7 -19 -65z"/>
</g>
</svg>
